<?xml version="1.0" encoding="iso-8859-1"?>
<!-- Uploaded to: SVG Repo, www.svgrepo.com, Generator: SVG Repo Mixer Tools -->
<svg fill="#000000" version="1.1" id="Layer_1" xmlns="http://www.w3.org/2000/svg" xmlns:xlink="http://www.w3.org/1999/xlink" 
	 viewBox="0 0 491.52 491.52" xml:space="preserve">
<g>
	<g>
		<path d="M0,0v491.52h491.52V0H0z M471.04,471.04H20.48V102.4h450.56V471.04z M471.04,81.92H20.48V20.48h450.56V81.92z"/>
	</g>
</g>
<g>
	<g>
		<rect x="430.08" y="40.96" width="20.48" height="20.48"/>
	</g>
</g>
<g>
	<g>
		<rect x="389.12" y="40.96" width="20.48" height="20.48"/>
	</g>
</g>
<g>
	<g>
		<rect x="348.16" y="40.96" width="20.48" height="20.48"/>
	</g>
</g>
<g>
	<g>
		<rect x="51.2" y="40.96" width="245.76" height="20.48"/>
	</g>
</g>
<g>
	<g>
		<polygon points="354.035,219.41 339.555,233.89 384.88,279.21 339.555,324.54 354.035,339.02 413.84,279.21 		"/>
	</g>
</g>
<g>
	<g>
		<polygon points="151.965,233.89 137.485,219.41 77.68,279.21 137.485,339.02 151.965,324.54 106.64,279.21 		"/>
	</g>
</g>
<g>
	<g>
		
			<rect x="152.764" y="276.458" transform="matrix(0.3786 -0.9256 0.9256 0.3786 -114.969 402.1564)" width="178.497" height="20.481"/>
	</g>
</g>
<g>
	<g>
		<path d="M40.96,153.6v266.24h409.6V153.6H40.96z M430.08,399.36H61.44V174.08h368.64V399.36z"/>
	</g>
</g>
<g>
	<g>
		<rect x="276.48" y="266.24" width="20.48" height="20.48"/>
	</g>
</g>
<g>
	<g>
		<rect x="317.44" y="266.24" width="20.48" height="20.48"/>
	</g>
</g>
<g>
	<g>
		<rect x="184.32" y="266.24" width="20.48" height="20.48"/>
	</g>
</g>
<g>
	<g>
		<rect x="143.36" y="266.24" width="20.48" height="20.48"/>
	</g>
</g>
</svg>