<?xml version="1.0" encoding="iso-8859-1"?>
<!-- Uploaded to: SVG Repo, www.svgrepo.com, Generator: SVG Repo Mixer Tools -->
<svg fill="#000000" height="800px" width="800px" version="1.1" id="Layer_1" xmlns="http://www.w3.org/2000/svg" xmlns:xlink="http://www.w3.org/1999/xlink" 
	 viewBox="0 0 491.52 491.52" xml:space="preserve">
<g>
	<g>
		<path d="M362.645,0L92.16,0.02v51.191L30.72,51.22v440.3H409.6v-61.44h51.2V98.16L362.645,0z M368.64,34.956l57.201,57.204H368.64
			V34.956z M389.12,471.04H51.2V71.7l40.96-0.008V430.08h296.96V471.04z M440.32,409.6H112.64V20.5l235.52-0.019v92.159h92.16V409.6
			z"/>
	</g>
</g>
<g>
	<g>
		<path d="M307.2,194.56V61.44h-81.92v133.12h-55.44l96.4,96.4l96.4-96.4H307.2z M219.28,215.04h26.48V81.92h40.96v133.12h26.48
			L266.24,262L219.28,215.04z"/>
	</g>
</g>
<g>
	<g>
		<path d="M368.64,225.28v81.92c0,11.29-9.185,20.48-20.48,20.48H184.32c-11.295,0-20.48-9.19-20.48-20.48v-81.92h-20.48v81.92
			c0,22.59,18.375,40.96,40.96,40.96h163.84c22.585,0,40.96-18.37,40.96-40.96v-81.92H368.64z"/>
	</g>
</g>
</svg>