<?xml version="1.0" encoding="iso-8859-1"?>
<!-- Uploaded to: SVG Repo, www.svgrepo.com, Generator: SVG Repo Mixer Tools -->
<svg fill="#000000" height="800px" width="800px" version="1.1" id="Layer_1" xmlns="http://www.w3.org/2000/svg" xmlns:xlink="http://www.w3.org/1999/xlink" 
	 viewBox="0 0 491.52 491.52" xml:space="preserve">
<g>
	<g>
		<polygon points="272.96,342.79 225.28,390.47 225.28,225.28 204.8,225.28 204.8,390.47 157.12,342.79 142.64,357.27 
			215.04,429.67 287.44,357.27 		"/>
	</g>
</g>
<g>
	<g>
		<path d="M258.25,51.2L204.72,0H51.2v51.2H0v378.88h92.16v61.44h245.76v-61.44h102.4v-51.2h51.2V51.2H258.25z M419.84,409.6h-81.92
			v-51.2h-20.48v112.64h-204.8V358.4H92.16v51.2H20.48V71.68H145.3l53.53,51.2h221.01V409.6z M440.32,358.4v-256H207.05l-53.53-51.2
			H71.68V20.48H196.5l53.53,51.2h221.01V358.4H440.32z"/>
	</g>
</g>
</svg>