<?xml version="1.0" encoding="iso-8859-1"?>
<!-- Uploaded to: SVG Repo, www.svgrepo.com, Generator: SVG Repo Mixer Tools -->
<svg fill="#000000" version="1.1" id="Capa_1" xmlns="http://www.w3.org/2000/svg" xmlns:xlink="http://www.w3.org/1999/xlink" 
	 viewBox="0 0 490 490" xml:space="preserve">
<g>
	<path d="M188.7,331.95v10.542h18.931l-0.045,3.095c0,6.445-1.062,10.527-3.185,12.262c-2.108,1.735-7.073,2.602-14.879,2.602
		c-8.015,0-13.144-1.032-15.342-3.065c-2.213-2.049-3.32-6.804-3.32-14.281l-0.105-9.66l0.045-7.566
		c0-7.626,1.122-12.456,3.35-14.52c2.228-2.064,7.477-3.095,15.761-3.095c7.626,0,12.382,0.598,14.281,1.794
		c1.884,1.196,2.961,4.262,3.23,9.197h14.46c0-9.795-1.944-16.12-5.847-18.976c-3.903-2.841-12.561-4.277-25.959-4.277
		c-10.228,0-17.481,0.927-21.758,2.766c-4.262,1.839-7.447,5.413-9.555,10.707c-1.69,4.352-2.527,14.759-2.527,31.253
		c0,12.92,2.108,21.488,6.34,25.675c4.232,4.202,12.875,6.296,25.9,6.296c14.206,0,23.373-1.57,27.47-4.71
		c4.112-3.155,6.161-10.169,6.161-21.07l-0.224-14.969H188.7z"/>
	<rect x="232.155" y="296.675" width="14.296" height="75.366"/>
	<polygon points="259.819,372.041 274.115,372.041 274.115,341.057 307.91,341.057 307.91,329.019 274.115,329.019 274.115,308.712 
		309.734,308.712 309.734,296.675 259.819,296.675 	"/>
	<path d="M77.788,0v265.111H42.189v139.615h0.001l35.59,35.591L77.788,490h370.023V102.422L345.388,0H77.788z M395.793,389.413
		H57.501v-108.99h338.292V389.413z M353.022,36.962l57.816,57.804h-57.816V36.962z"/>
</g>
</svg>